<svg 
  xmlns="http://www.w3.org/2000/svg" 
  viewBox="0 0 512 512" 
  height="100%" 
  width="100%" 
  style="fill-rule:evenodd;clip-rule:evenodd;stroke-linejoin:round;stroke-miterlimit:2;"
>
  <g style="display:inline" transform="translate(-4096,-8192)">
    <g transform="translate(4352,8222)">
      <path 
        d="m 0,451.996 c -124.617,0 -226,-101.383 -226,-226 C -226,101.382 -124.617,0 0,0 c 124.617,0 226,101.382 226,225.996 0,124.617 -101.383,226 -226,226 M 0,-30 c -141.159,0 -256,114.839 -256,255.996 0,141.159 114.841,256 256,256 141.159,0 256,-114.841 256,-256 C 256,84.839 141.159,-30 0,-30"
        style="fill-rule:nonzero"
      />
    </g>
    <g transform="translate(4376.62,8446.46)">
      <path 
        d="m 0,153.623 c -6.34,6.813 -15.313,10.721 -24.618,10.721 -9.306,0 -18.278,-3.908 -24.618,-10.72 -6.337,-6.811 -9.589,-16.042 -8.921,-25.327 l 8.33,-115.568 c 0.949,-13.149 12.022,-23.45 25.209,-23.45 13.181,0 24.25,10.301 25.199,23.453 2.34,32.358 5.74,79.499 8.34,115.564 C 9.589,137.581 6.338,146.812 0,153.623 M 30.503,10.571 C 28.428,-18.19 4.216,-40.721 -24.618,-40.721 c -28.84,0 -53.056,22.531 -55.131,51.294 l -8.33,115.568 v 10e-4 c -1.265,17.564 4.888,35.03 16.88,47.918 11.996,12.891 28.973,20.284 46.581,20.284 17.607,0 34.585,-7.393 46.581,-20.284 11.992,-12.888 18.144,-30.354 16.88,-47.919 -2.6,-36.068 -6,-83.213 -8.34,-115.57"
        style="fill-rule:nonzero"
      />
    </g>
    <g transform="translate(4330.52,8328.36)">
      <path 
        d="m 0,-21.687 c 0,-11.841 9.636,-21.475 21.48,-21.475 11.839,0 21.47,9.634 21.47,21.475 V 0.001 c 0,11.841 -9.631,21.474 -21.47,21.474 C 9.636,21.475 0,11.842 0,0.001 Z m 21.48,73.162 c 28.381,0 51.47,-23.091 51.47,-51.474 v -21.688 c 0,-28.383 -23.089,-51.475 -51.47,-51.475 -28.386,0 -51.48,23.092 -51.48,51.475 V 0.001 c 0,28.383 23.094,51.474 51.48,51.474"
        style="fill-rule:nonzero"
      />
    </g>
  </g>
</svg>
